<?xml version="1.0" encoding="UTF-8" standalone="no"?>
<svg
   viewBox="105 120 302 290"
   width="512"
   height="512"
   version="1.1"
   id="svg14"
   sodipodi:docname="wellspring-logo.svg"
   inkscape:version="1.2.2 (732a01da63, 2022-12-09)"
   xmlns:inkscape="http://www.inkscape.org/namespaces/inkscape"
   xmlns:sodipodi="http://sodipodi.sourceforge.net/DTD/sodipodi-0.dtd"
   xmlns="http://www.w3.org/2000/svg"
   xmlns:svg="http://www.w3.org/2000/svg">
  <defs
     id="defs18" />
  <sodipodi:namedview
     id="namedview16"
     pagecolor="#ffffff"
     bordercolor="#000000"
     borderopacity="0.25"
     inkscape:showpageshadow="2"
     inkscape:pageopacity="0.0"
     inkscape:pagecheckerboard="0"
     inkscape:deskcolor="#d1d1d1"
     showgrid="false"
     inkscape:zoom="2.3828125"
     inkscape:cx="237.53443"
     inkscape:cy="303.21311"
     inkscape:window-width="2462"
     inkscape:window-height="1411"
     inkscape:window-x="2489"
     inkscape:window-y="-9"
     inkscape:window-maximized="1"
     inkscape:current-layer="svg14" />
  <!-- Base pool -->
  <line
     x1="130"
     y1="380"
     x2="382"
     y2="380"
     stroke="#6a9beb"
     stroke-width="16"
     stroke-linecap="round"
     id="line2" />
  <!-- Five angular jets as filled triangles (pointed/tapered) -->
  <!-- Far left -->
  <!-- Inner left -->
  <!-- Center -->
  <path
     id="polygon8"
     style="fill:#6a9beb;stroke-width:1.13892"
     d="m 257.174,210.77755 -6.8006,4.70967 -6.80061,158.25233 h 27.20243 l -6.80061,-158.25233 z m 2.29157,41.35032"
     sodipodi:nodetypes="cccccc" />
  <path
     id="polygon8-8"
     style="fill:#6a9beb;stroke-width:1.09482"
     d="m 326.97566,231.13699 -7.69525,2.44355 -44.41677,139.49009 26.27553,7.0405 31.279,-143.01033 z m -7.67593,37.50087"
     sodipodi:nodetypes="cccccc" />
  <path
     id="polygon8-8-1"
     style="fill:#6a9beb;stroke-width:1.04604"
     d="m 385.66958,262.0389 -7.8759,0.0403 -72.63573,112.20756 23.55799,13.60122 60.85674,-119.00818 z m -15.45581,31.35338"
     sodipodi:nodetypes="cccccc" />
  <path
     id="polygon8-8-3"
     style="fill:#6a9beb;stroke-width:1.09482"
     d="m 184.44555,231.08392 7.69525,2.44355 44.41677,139.49009 -26.27553,7.0405 -31.279,-143.01033 z m 7.67593,37.50087"
     sodipodi:nodetypes="cccccc" />
  <path
     id="polygon8-8-1-5"
     style="fill:#6a9beb;stroke-width:1.04604"
     d="m 125.75163,261.98583 7.8759,0.0403 72.63573,112.20756 -23.55799,13.60122 -60.85674,-119.00818 z m 15.45581,31.35338"
     sodipodi:nodetypes="cccccc" />
  <!-- Inner right -->
  <!-- Far right -->
</svg>
